<?xml version="1.0" encoding="UTF-8"?>
<svg width="752pt" height="752pt" version="1.1" viewBox="0 0 752 752" xmlns="http://www.w3.org/2000/svg">
 <g>
  <path d="m311.2 423.67c-36.617-14.898-55.223-16.516-74.926-18.223-19.422-1.6758-39.531-3.4531-77.582-18.707-2.8281 4.2656-5.1602 12.555-7.043 22.598 39.121 10.195 58.926 9.4141 78.031 8.625 19.328-0.79688 39.297-1.6133 78.367 8.7461 13.223 3.5078 23.52 6.9609 31.707 10.305-7.2695-4.0195-16.527-8.4531-28.555-13.344z"/>
  <path d="m306.55 437.09c-38.207-10.141-56.867-9.375-76.637-8.5625-19.465 0.80469-39.625 1.6016-79.273-8.6914-1.2773 7.832-2.3125 16.316-3.1289 24.504 38.676 4.5898 57.852 1.2695 76.352-1.9688 19.043-3.3281 38.734-6.7734 78.836-1.6484 15.684 2.0078 27.5 4.4531 36.617 7.1055-8.0938-3.4102-18.676-7.0039-32.766-10.738z"/>
  <path d="m224.87 452.85c-18.902 3.3008-38.477 6.6875-77.91 2.0352-0.80469 8.9766-1.3594 17.27-1.6562 23.422 39.613-0.28125 58.309-6.0664 76.402-11.672 18.473-5.7227 37.574-11.637 77.992-11.637 13.668 0 24.504 0.69141 33.27 1.832-8.0586-2.0352-18.137-3.9336-31.004-5.5781-39.211-5.0195-57.613-1.8047-77.094 1.5977z"/>
  <path d="m522.32 418.08c19.148 0.78125 38.984 1.5781 78.297-8.6914-1.9414-10.926-4.2812-19.398-7.0039-22.652-38.258 15.371-58.41 17.141-77.891 18.824-19.699 1.7109-38.312 3.3164-74.93 18.227-12.023 4.8984-21.293 9.3281-28.562 13.359 8.1875-3.3477 18.488-6.8086 31.727-10.316 39.059-10.363 59.039-9.5391 78.363-8.75z"/>
  <path d="m590.66 376.93-41.457-119.71c-30.008 11.91-46.008 13.293-61.488 14.633-15.828 1.3672-30.773 2.6602-60.18 14.629-40.781 16.605-42.992 26.977-44.176 32.551-0.57422 2.6758-1.25 5.668-4.9141 7.6211v136.04c0.019532-0.027344 0.058594-0.058594 0.082032-0.09375 0.17188-0.24609 0.32031-0.54297 0.47266-0.87109 0.30859-0.75 0.53906-1.6484 0.82422-2.9609 1.8477-8.6719 4.9336-23.188 58.789-45.098 37.434-15.25 57.355-16.969 76.625-18.641 18.906-1.6367 38.449-3.3242 75.422-18.094z"/>
  <path d="m528.13 442.49c18.516 3.2383 37.703 6.5508 76.441 1.9609-0.81641-8.4766-1.8125-16.902-2.9961-24.551-39.77 10.344-59.973 9.5508-79.492 8.7422-19.766-0.80859-38.422-1.5742-76.637 8.5664-14.09 3.7422-24.668 7.3359-32.781 10.75 9.1211-2.6523 20.941-5.0977 36.625-7.1055 40.098-5.1367 59.809-1.6914 78.84 1.6367z"/>
  <path d="m530.29 466.76c18.09 5.6016 36.789 11.395 76.402 11.68-0.33984-7.1523-0.89062-15.215-1.5898-23.434-39.469 4.6641-59.07 1.2734-77.977-2.0312-19.477-3.4062-37.879-6.6172-77.094-1.6016-12.859 1.6484-22.941 3.5508-30.996 5.5781 8.7617-1.1289 19.594-1.832 33.258-1.832 40.43 0 59.527 5.9219 77.996 11.641z"/>
  <path d="m372.18 458.64c0.15625 0.73047 0.28906 1.3203 0.42969 1.8672v-133.86c-3.6641-1.9492-4.3438-4.9453-4.9102-7.6211-1.1875-5.5742-3.3945-15.945-44.18-32.551-29.406-11.969-44.352-13.262-60.172-14.629-15.484-1.3398-31.48-2.7266-61.477-14.629l-40.555 119.57c36.988 14.781 56.535 16.477 75.457 18.109 19.266 1.6719 39.184 3.3945 76.621 18.629 53.855 21.918 56.941 36.438 58.785 45.109z"/>
 </g>
</svg>
